HIERARCHY
ROOT Hips
{
	OFFSET 47.747299 1.723456 84.157898
	CHANNELS 6 Xposition Yposition Zposition Xrotation Yrotation Zrotation
	JOINT spine
	{
		OFFSET 0.000000 -0.342408 5.954376
		CHANNELS 3 Xrotation Yrotation Zrotation
		JOINT spine1
		{
			OFFSET 0.000000 -0.000001 8.856018
			CHANNELS 3 Xrotation Yrotation Zrotation
			JOINT spine2
			{
				OFFSET 0.000000 -0.000001 8.485672
				CHANNELS 3 Xrotation Yrotation Zrotation
				JOINT Neck
				{
					OFFSET 0.000000 -1.038704 21.786301
					CHANNELS 3 Xrotation Yrotation Zrotation
					JOINT Head
					{
						OFFSET 0.000000 -0.000001 6.582199
						CHANNELS 3 Xrotation Yrotation Zrotation
						End Site
						{
							OFFSET 0.000000 5.254357 15.932602
						}
					}
				}
				JOINT RightShoulder
				{
					OFFSET -3.573071 0.497524 9.163864
					CHANNELS 3 Xrotation Yrotation Zrotation
					JOINT RightArm
					{
						OFFSET 0.000000 -0.000002 12.019196
						CHANNELS 3 Xrotation Yrotation Zrotation
						JOINT RightArmRoll
						{
							OFFSET 0.000000 -0.000001 6.067551
							CHANNELS 3 Xrotation Yrotation Zrotation
							JOINT RightForeArm
							{
								OFFSET 0.000000 -0.000003 17.672592
								CHANNELS 3 Xrotation Yrotation Zrotation
								JOINT RightForeArmRoll
								{
									OFFSET 0.000000 -0.000001 6.808716
									CHANNELS 3 Xrotation Yrotation Zrotation
									JOINT RightHand
									{
										OFFSET 0.000000 -0.000002 13.663605
										CHANNELS 3 Xrotation Yrotation Zrotation
										End Site
										{
											OFFSET 0.000000 0.000000 0.100006
										}
									}
								}
							}
						}
					}
				}
				JOINT LeftShoulder
				{
					OFFSET 3.573071 0.497524 9.163864
					CHANNELS 3 Xrotation Yrotation Zrotation
					JOINT LeftArm
					{
						OFFSET 0.000000 -0.000002 12.019196
						CHANNELS 3 Xrotation Yrotation Zrotation
						JOINT LeftArmRoll
						{
							OFFSET 0.000000 -0.000001 6.067551
							CHANNELS 3 Xrotation Yrotation Zrotation
							JOINT LeftForeArm
							{
								OFFSET 0.000000 -0.000003 17.672592
								CHANNELS 3 Xrotation Yrotation Zrotation
								JOINT LeftForeArmRoll
								{
									OFFSET 0.000000 -0.000001 6.808716
									CHANNELS 3 Xrotation Yrotation Zrotation
									JOINT LeftHand
									{
										OFFSET 0.000000 -0.000002 13.663605
										CHANNELS 3 Xrotation Yrotation Zrotation
										End Site
										{
											OFFSET 0.000000 0.000000 0.100006
										}
									}
								}
							}
						}
					}
				}
			}
		}
	}
	JOINT RightUpLeg
	{
		OFFSET -5.277740 0.811858 -0.967796
		CHANNELS 3 Xrotation Yrotation Zrotation
		JOINT RightUpLegRoll
		{
			OFFSET 0.000000 -0.000003 16.021400
			CHANNELS 3 Xrotation Yrotation Zrotation
			JOINT RightLeg
			{
				OFFSET 0.000000 0.000003 -19.840103
				CHANNELS 3 Xrotation Yrotation Zrotation
				JOINT RightLegRoll
				{
					OFFSET 0.000000 -0.000003 19.904999
					CHANNELS 3 Xrotation Yrotation Zrotation
					JOINT RightFoot
					{
						OFFSET 0.000000 -0.000003 16.567497
						CHANNELS 3 Xrotation Yrotation Zrotation
						JOINT RightToeBase
						{
							OFFSET 0.000000 -0.000002 13.849602
							CHANNELS 3 Xrotation Yrotation Zrotation
							End Site
							{
								OFFSET 0.005871 0.773116 6.707275
							}
						}
					}
				}
			}
		}
	}
	JOINT LeftUpLeg
	{
		OFFSET 5.277740 0.811858 -0.967796
		CHANNELS 3 Xrotation Yrotation Zrotation
		JOINT LeftUpLegRoll
		{
			OFFSET 0.000000 -0.000003 16.021500
			CHANNELS 3 Xrotation Yrotation Zrotation
			JOINT LeftLeg
			{
				OFFSET 0.000000 -0.000003 19.840004
				CHANNELS 3 Xrotation Yrotation Zrotation
				JOINT LeftLegRoll
				{
					OFFSET 0.000000 -0.000003 20.089005
					CHANNELS 3 Xrotation Yrotation Zrotation
					JOINT LeftFoot
					{
						OFFSET 0.000000 -0.000003 16.383499
						CHANNELS 3 Xrotation Yrotation Zrotation
						JOINT LeftToeBase
						{
							OFFSET 0.000000 -0.000002 13.849594
							CHANNELS 3 Xrotation Yrotation Zrotation
							End Site
							{
								OFFSET -0.026310 0.773116 6.707275
							}
						}
					}
				}
			}
		}
	}
}
MOTION
Frames: 5
Frame Time: 0.041667
55.149300 4.807483 84.211304 -8.572735 -3.510674 0.197443 0.884122 0.416677 0.048119 5.759350 0.846657 0.080154 7.404535 0.847424 0.063295 4.027877 8.587214 -1.912951 8.041507 -8.098497 -2.385545 -9.934865 -60.104463 -11.748700 -28.629276 -128.269313 -48.152987 0.000003 -0.000003 0.000002 -0.026482 3.639951 -1.990999 0.000002 -0.000010 -3.011601 -5.000154 -7.999919 0.000001 -14.017283 56.870474 16.465225 -28.600855 131.720239 49.764885 -0.000001 0.000006 -0.000002 -0.035686 -3.646151 1.990927 0.000000 -0.000001 3.011602 -5.000185 7.999929 0.000000 0.092213 -173.504017 7.223471 -179.999991 0.000005 -1.123001 165.985659 -4.304464 -0.975237 0.000002 0.000002 0.199766 70.961410 6.863079 2.056604 25.456957 -7.355614 0.000001 3.937113 -176.286759 2.657489 -0.000005 -0.000004 -1.149690 -8.403952 1.526142 0.372962 -0.000000 0.000001 -0.085018 68.918159 -6.905626 -2.085190 25.456911 7.354899 0.000003 
55.155300 4.814797 84.212395 -8.533415 -3.504340 0.205365 0.885378 0.416271 0.048119 5.762149 0.844928 0.080152 7.407321 0.845694 0.063294 3.966629 8.578648 -1.911025 8.033638 -8.089441 -2.388579 -9.953507 -60.114339 -11.771235 -28.742440 -128.337861 -48.299785 0.000002 -0.000004 -0.000000 -0.026481 3.639950 -1.990998 0.000002 -0.000010 -3.011600 -5.000153 -7.999919 -0.000002 -14.045467 56.865628 16.498981 -28.663432 131.795535 49.876975 0.000001 0.000007 -0.000000 -0.035686 -3.646151 1.990928 0.000001 -0.000001 3.011603 -5.000184 7.999929 0.000001 0.049518 -173.520000 7.201288 -179.999991 0.000005 -1.122004 165.983856 -4.294726 -0.973957 0.000002 0.000002 0.199801 70.962797 6.863081 2.056516 25.456955 -7.355615 0.000001 3.885157 -176.295515 2.653035 -0.000005 -0.000004 -1.149050 -8.418984 1.527597 0.373370 -0.000000 0.000001 -0.085157 68.921219 -6.905625 -2.085198 25.456916 7.354900 0.000003 
55.147400 4.819285 84.210594 -8.494613 -3.498147 0.213160 0.886659 0.415896 0.048119 5.764997 0.843225 0.080152 7.410180 0.843993 0.063293 3.905958 8.570063 -1.909073 8.025745 -8.080266 -2.391522 -9.973314 -60.124728 -11.795176 -28.856347 -128.405740 -48.447327 0.000002 -0.000004 0.000002 -0.026483 3.639950 -1.991001 0.000002 -0.000010 -3.011600 -5.000153 -7.999919 -0.000002 -14.074741 56.860959 16.534064 -28.725887 131.870831 49.988662 -0.000000 0.000006 -0.000000 -0.035686 -3.646150 1.990929 0.000001 -0.000002 3.011600 -5.000186 7.999930 0.000000 0.007321 -173.535996 7.179493 -179.999991 0.000005 -1.121007 165.981916 -4.284985 -0.972682 0.000002 0.000002 0.199827 70.964176 6.863045 2.056526 25.456953 -7.355615 -0.000000 3.833926 -176.305269 2.648517 -0.000005 -0.000004 -1.148420 -8.433716 1.529161 0.373760 -0.000000 0.000000 -0.085288 68.924279 -6.905626 -2.085108 25.456912 7.354901 0.000002 
55.141800 4.818784 84.212593 -8.456187 -3.492056 0.220863 0.887962 0.415543 0.048119 5.767883 0.841543 0.080152 7.413064 0.842311 0.063293 3.845687 8.561475 -1.907110 8.017851 -8.071000 -2.394406 -9.993965 -60.135451 -11.820138 -28.969622 -128.474670 -48.593924 0.000002 -0.000004 -0.000000 -0.026481 3.639951 -1.990996 0.000003 -0.000010 -3.011600 -5.000153 -7.999918 0.000002 -14.104779 56.856397 16.570070 -28.788739 131.945267 50.100831 0.000000 0.000007 0.000002 -0.035686 -3.646150 1.990928 0.000001 -0.000002 3.011599 -5.000186 7.999928 0.000001 -0.034513 -173.552006 7.157982 -179.999991 0.000005 -1.121007 165.979881 -4.276209 -0.971658 0.000002 0.000002 0.199844 70.965543 6.863012 2.056536 25.456957 -7.355615 0.000001 3.783203 -176.314039 2.644066 -0.000005 -0.000004 -1.147810 -8.448238 1.530805 0.374138 -0.000000 0.000000 -0.085414 68.927339 -6.905625 -2.085117 25.456912 7.354901 0.000002 
55.133598 4.827435 84.211296 -8.417968 -3.486010 0.228510 0.889272 0.415201 0.048119 5.770801 0.839872 0.080151 7.415972 0.840639 0.063293 3.785661 8.552905 -1.905145 8.009941 -8.061683 -2.397257 -10.015141 -60.146441 -11.845711 -29.082747 -128.543696 -48.740367 0.000002 -0.000004 0.000001 -0.026481 3.639950 -1.990998 0.000003 -0.000010 -3.011600 -5.000153 -7.999919 -0.000003 -14.135238 56.851868 16.606591 -28.850613 132.020508 50.211944 0.000001 0.000006 -0.000001 -0.035687 -3.646150 1.990927 0.000001 -0.000001 3.011599 -5.000186 7.999929 -0.000001 -0.076157 -173.568016 7.136650 -179.999991 0.000005 -1.119996 165.977954 -4.266470 -0.971394 0.000002 0.000002 0.199858 70.966922 6.863012 2.056451 25.456959 -7.355613 0.000001 3.732766 -176.323806 2.639553 -0.000005 -0.000004 -1.147200 -8.462619 1.532489 0.374507 0.000000 0.000000 -0.085537 68.930392 -6.905623 -2.085026 25.456912 7.354900 0.000002 
